<mxfile host="app.diagrams.net" agent="Mozilla/5.0 (Macintosh; Intel Mac OS X 10_15_7) AppleWebKit/537.36 (KHTML, like Gecko) Chrome/138.0.0.0 Safari/537.36" version="28.0.5">
  <diagram name="Page-1" id="WNCRTWyDe1K8f0sDpaMF">
    <mxGraphModel dx="1198" dy="811" grid="0" gridSize="10" guides="1" tooltips="1" connect="1" arrows="1" fold="1" page="0" pageScale="1" pageWidth="850" pageHeight="1100" math="0" shadow="0" adaptiveColors="none">
      <root>
        <mxCell id="0" />
        <mxCell id="1" parent="0" />
        <mxCell id="ewHiVL7d5sDHPTaRoK4K-51" value="Countries" style="shape=table;startSize=30;container=1;collapsible=1;childLayout=tableLayout;fixedRows=1;rowLines=0;fontStyle=1;align=center;resizeLast=1;html=1;labelBackgroundColor=none;sketch=1;curveFitting=1;jiggle=2;rounded=1;" vertex="1" parent="1">
          <mxGeometry x="198" y="401.7" width="140" height="150" as="geometry" />
        </mxCell>
        <mxCell id="ewHiVL7d5sDHPTaRoK4K-52" value="" style="shape=tableRow;horizontal=0;startSize=0;swimlaneHead=0;swimlaneBody=0;fillColor=none;collapsible=0;dropTarget=0;points=[[0,0.5],[1,0.5]];portConstraint=eastwest;top=0;left=0;right=0;bottom=1;labelBackgroundColor=none;sketch=1;curveFitting=1;jiggle=2;rounded=1;" vertex="1" parent="ewHiVL7d5sDHPTaRoK4K-51">
          <mxGeometry y="30" width="140" height="30" as="geometry" />
        </mxCell>
        <mxCell id="ewHiVL7d5sDHPTaRoK4K-54" value="ID" style="shape=partialRectangle;connectable=0;fillColor=none;top=0;left=0;bottom=0;right=0;align=left;spacingLeft=6;fontStyle=5;overflow=hidden;whiteSpace=wrap;html=1;labelBackgroundColor=none;sketch=1;curveFitting=1;jiggle=2;rounded=1;" vertex="1" parent="ewHiVL7d5sDHPTaRoK4K-52">
          <mxGeometry width="30" height="30" as="geometry">
            <mxRectangle width="30" height="30" as="alternateBounds" />
          </mxGeometry>
        </mxCell>
        <mxCell id="ewHiVL7d5sDHPTaRoK4K-72" value="Country_name" style="shape=partialRectangle;connectable=0;fillColor=none;top=0;left=0;bottom=0;right=0;align=left;spacingLeft=6;fontStyle=5;overflow=hidden;whiteSpace=wrap;html=1;labelBackgroundColor=none;sketch=1;curveFitting=1;jiggle=2;rounded=1;" vertex="1" parent="ewHiVL7d5sDHPTaRoK4K-52">
          <mxGeometry x="30" width="110" height="30" as="geometry">
            <mxRectangle width="110" height="30" as="alternateBounds" />
          </mxGeometry>
        </mxCell>
        <mxCell id="ewHiVL7d5sDHPTaRoK4K-55" value="" style="shape=tableRow;horizontal=0;startSize=0;swimlaneHead=0;swimlaneBody=0;fillColor=none;collapsible=0;dropTarget=0;points=[[0,0.5],[1,0.5]];portConstraint=eastwest;top=0;left=0;right=0;bottom=0;labelBackgroundColor=none;sketch=1;curveFitting=1;jiggle=2;rounded=1;" vertex="1" parent="ewHiVL7d5sDHPTaRoK4K-51">
          <mxGeometry y="60" width="140" height="30" as="geometry" />
        </mxCell>
        <mxCell id="ewHiVL7d5sDHPTaRoK4K-57" value="1" style="shape=partialRectangle;connectable=0;fillColor=none;top=0;left=0;bottom=0;right=0;align=left;spacingLeft=6;overflow=hidden;whiteSpace=wrap;html=1;labelBackgroundColor=none;sketch=1;curveFitting=1;jiggle=2;rounded=1;" vertex="1" parent="ewHiVL7d5sDHPTaRoK4K-55">
          <mxGeometry width="30" height="30" as="geometry">
            <mxRectangle width="30" height="30" as="alternateBounds" />
          </mxGeometry>
        </mxCell>
        <mxCell id="ewHiVL7d5sDHPTaRoK4K-73" value="UAE" style="shape=partialRectangle;connectable=0;fillColor=none;top=0;left=0;bottom=0;right=0;align=left;spacingLeft=6;overflow=hidden;whiteSpace=wrap;html=1;labelBackgroundColor=none;sketch=1;curveFitting=1;jiggle=2;rounded=1;" vertex="1" parent="ewHiVL7d5sDHPTaRoK4K-55">
          <mxGeometry x="30" width="110" height="30" as="geometry">
            <mxRectangle width="110" height="30" as="alternateBounds" />
          </mxGeometry>
        </mxCell>
        <mxCell id="ewHiVL7d5sDHPTaRoK4K-58" value="" style="shape=tableRow;horizontal=0;startSize=0;swimlaneHead=0;swimlaneBody=0;fillColor=none;collapsible=0;dropTarget=0;points=[[0,0.5],[1,0.5]];portConstraint=eastwest;top=0;left=0;right=0;bottom=0;labelBackgroundColor=none;sketch=1;curveFitting=1;jiggle=2;rounded=1;" vertex="1" parent="ewHiVL7d5sDHPTaRoK4K-51">
          <mxGeometry y="90" width="140" height="30" as="geometry" />
        </mxCell>
        <mxCell id="ewHiVL7d5sDHPTaRoK4K-60" value="2" style="shape=partialRectangle;connectable=0;fillColor=none;top=0;left=0;bottom=0;right=0;align=left;spacingLeft=6;overflow=hidden;whiteSpace=wrap;html=1;labelBackgroundColor=none;sketch=1;curveFitting=1;jiggle=2;rounded=1;" vertex="1" parent="ewHiVL7d5sDHPTaRoK4K-58">
          <mxGeometry width="30" height="30" as="geometry">
            <mxRectangle width="30" height="30" as="alternateBounds" />
          </mxGeometry>
        </mxCell>
        <mxCell id="ewHiVL7d5sDHPTaRoK4K-74" value="Kazakstan" style="shape=partialRectangle;connectable=0;fillColor=none;top=0;left=0;bottom=0;right=0;align=left;spacingLeft=6;overflow=hidden;whiteSpace=wrap;html=1;labelBackgroundColor=none;sketch=1;curveFitting=1;jiggle=2;rounded=1;" vertex="1" parent="ewHiVL7d5sDHPTaRoK4K-58">
          <mxGeometry x="30" width="110" height="30" as="geometry">
            <mxRectangle width="110" height="30" as="alternateBounds" />
          </mxGeometry>
        </mxCell>
        <mxCell id="ewHiVL7d5sDHPTaRoK4K-61" value="" style="shape=tableRow;horizontal=0;startSize=0;swimlaneHead=0;swimlaneBody=0;fillColor=none;collapsible=0;dropTarget=0;points=[[0,0.5],[1,0.5]];portConstraint=eastwest;top=0;left=0;right=0;bottom=0;labelBackgroundColor=none;sketch=1;curveFitting=1;jiggle=2;rounded=1;" vertex="1" parent="ewHiVL7d5sDHPTaRoK4K-51">
          <mxGeometry y="120" width="140" height="30" as="geometry" />
        </mxCell>
        <mxCell id="ewHiVL7d5sDHPTaRoK4K-63" value="3" style="shape=partialRectangle;connectable=0;fillColor=none;top=0;left=0;bottom=0;right=0;align=left;spacingLeft=6;overflow=hidden;whiteSpace=wrap;html=1;labelBackgroundColor=none;sketch=1;curveFitting=1;jiggle=2;rounded=1;" vertex="1" parent="ewHiVL7d5sDHPTaRoK4K-61">
          <mxGeometry width="30" height="30" as="geometry">
            <mxRectangle width="30" height="30" as="alternateBounds" />
          </mxGeometry>
        </mxCell>
        <mxCell id="ewHiVL7d5sDHPTaRoK4K-75" value="Turkey" style="shape=partialRectangle;connectable=0;fillColor=none;top=0;left=0;bottom=0;right=0;align=left;spacingLeft=6;overflow=hidden;whiteSpace=wrap;html=1;labelBackgroundColor=none;sketch=1;curveFitting=1;jiggle=2;rounded=1;" vertex="1" parent="ewHiVL7d5sDHPTaRoK4K-61">
          <mxGeometry x="30" width="110" height="30" as="geometry">
            <mxRectangle width="110" height="30" as="alternateBounds" />
          </mxGeometry>
        </mxCell>
        <mxCell id="ewHiVL7d5sDHPTaRoK4K-82" value="Regions" style="shape=table;startSize=30;container=1;collapsible=1;childLayout=tableLayout;fixedRows=1;rowLines=0;fontStyle=1;align=center;resizeLast=1;labelBackgroundColor=none;sketch=1;curveFitting=1;jiggle=2;rounded=1;labelBorderColor=none;html=1;fontColor=default;" vertex="1" parent="1">
          <mxGeometry x="180" y="90" width="220" height="185.15454545454514" as="geometry" />
        </mxCell>
        <mxCell id="ewHiVL7d5sDHPTaRoK4K-83" value="" style="shape=tableRow;horizontal=0;startSize=0;swimlaneHead=0;swimlaneBody=0;fillColor=none;collapsible=0;dropTarget=0;points=[[0,0.5],[1,0.5]];portConstraint=eastwest;top=0;left=0;right=0;bottom=1;labelBackgroundColor=none;sketch=1;curveFitting=1;jiggle=2;rounded=1;" vertex="1" parent="ewHiVL7d5sDHPTaRoK4K-82">
          <mxGeometry y="30" width="220" height="33" as="geometry" />
        </mxCell>
        <mxCell id="ewHiVL7d5sDHPTaRoK4K-84" value="ID" style="shape=partialRectangle;connectable=0;fillColor=none;top=0;left=0;bottom=0;right=0;align=left;spacingLeft=6;fontStyle=5;overflow=hidden;whiteSpace=wrap;html=1;labelBackgroundColor=none;sketch=1;curveFitting=1;jiggle=2;rounded=1;" vertex="1" parent="ewHiVL7d5sDHPTaRoK4K-83">
          <mxGeometry width="30" height="33" as="geometry">
            <mxRectangle width="30" height="33" as="alternateBounds" />
          </mxGeometry>
        </mxCell>
        <mxCell id="ewHiVL7d5sDHPTaRoK4K-85" value="Country_id" style="shape=partialRectangle;connectable=0;fillColor=none;top=0;left=0;bottom=0;right=0;align=center;spacingLeft=6;fontStyle=5;overflow=hidden;whiteSpace=wrap;html=1;labelBackgroundColor=none;sketch=1;curveFitting=1;jiggle=2;rounded=1;" vertex="1" parent="ewHiVL7d5sDHPTaRoK4K-83">
          <mxGeometry x="30" width="90" height="33" as="geometry">
            <mxRectangle width="90" height="33" as="alternateBounds" />
          </mxGeometry>
        </mxCell>
        <mxCell id="ewHiVL7d5sDHPTaRoK4K-101" value="Region_name" style="shape=partialRectangle;connectable=0;fillColor=none;top=0;left=0;bottom=0;right=0;align=center;spacingLeft=6;fontStyle=5;overflow=hidden;whiteSpace=wrap;html=1;labelBackgroundColor=none;sketch=1;curveFitting=1;jiggle=2;rounded=1;flipV=1;flipH=1;" vertex="1" parent="ewHiVL7d5sDHPTaRoK4K-83">
          <mxGeometry x="120" width="100" height="33" as="geometry">
            <mxRectangle width="100" height="33" as="alternateBounds" />
          </mxGeometry>
        </mxCell>
        <mxCell id="ewHiVL7d5sDHPTaRoK4K-89" value="" style="shape=tableRow;horizontal=0;startSize=0;swimlaneHead=0;swimlaneBody=0;fillColor=none;collapsible=0;dropTarget=0;points=[[0,0.5],[1,0.5]];portConstraint=eastwest;top=0;left=0;right=0;bottom=0;labelBackgroundColor=none;sketch=1;curveFitting=1;jiggle=2;rounded=1;" vertex="1" parent="ewHiVL7d5sDHPTaRoK4K-82">
          <mxGeometry y="63" width="220" height="31" as="geometry" />
        </mxCell>
        <mxCell id="ewHiVL7d5sDHPTaRoK4K-90" value="1" style="shape=partialRectangle;connectable=0;fillColor=none;top=0;left=0;bottom=0;right=0;align=center;spacingLeft=6;overflow=hidden;whiteSpace=wrap;html=1;labelBackgroundColor=none;sketch=1;curveFitting=1;jiggle=2;rounded=1;" vertex="1" parent="ewHiVL7d5sDHPTaRoK4K-89">
          <mxGeometry width="30" height="31" as="geometry">
            <mxRectangle width="30" height="31" as="alternateBounds" />
          </mxGeometry>
        </mxCell>
        <mxCell id="ewHiVL7d5sDHPTaRoK4K-91" value="1" style="shape=partialRectangle;connectable=0;fillColor=none;top=0;left=0;bottom=0;right=0;align=center;spacingLeft=6;overflow=hidden;whiteSpace=wrap;html=1;labelBackgroundColor=none;sketch=1;curveFitting=1;jiggle=2;rounded=1;" vertex="1" parent="ewHiVL7d5sDHPTaRoK4K-89">
          <mxGeometry x="30" width="90" height="31" as="geometry">
            <mxRectangle width="90" height="31" as="alternateBounds" />
          </mxGeometry>
        </mxCell>
        <mxCell id="ewHiVL7d5sDHPTaRoK4K-103" value="Abu-Dhabi" style="shape=partialRectangle;connectable=0;fillColor=none;top=0;left=0;bottom=0;right=0;align=center;spacingLeft=6;overflow=hidden;whiteSpace=wrap;html=1;labelBackgroundColor=none;sketch=1;curveFitting=1;jiggle=2;rounded=1;" vertex="1" parent="ewHiVL7d5sDHPTaRoK4K-89">
          <mxGeometry x="120" width="100" height="31" as="geometry">
            <mxRectangle width="100" height="31" as="alternateBounds" />
          </mxGeometry>
        </mxCell>
        <mxCell id="ewHiVL7d5sDHPTaRoK4K-92" value="" style="shape=tableRow;horizontal=0;startSize=0;swimlaneHead=0;swimlaneBody=0;fillColor=none;collapsible=0;dropTarget=0;points=[[0,0.5],[1,0.5]];portConstraint=eastwest;top=0;left=0;right=0;bottom=0;labelBackgroundColor=none;sketch=1;curveFitting=1;jiggle=2;rounded=1;" vertex="1" parent="ewHiVL7d5sDHPTaRoK4K-82">
          <mxGeometry y="94" width="220" height="30" as="geometry" />
        </mxCell>
        <mxCell id="ewHiVL7d5sDHPTaRoK4K-93" value="2" style="shape=partialRectangle;connectable=0;fillColor=none;top=0;left=0;bottom=0;right=0;align=center;spacingLeft=6;overflow=hidden;whiteSpace=wrap;html=1;labelBackgroundColor=none;sketch=1;curveFitting=1;jiggle=2;rounded=1;" vertex="1" parent="ewHiVL7d5sDHPTaRoK4K-92">
          <mxGeometry width="30" height="30" as="geometry">
            <mxRectangle width="30" height="30" as="alternateBounds" />
          </mxGeometry>
        </mxCell>
        <mxCell id="ewHiVL7d5sDHPTaRoK4K-94" value="2" style="shape=partialRectangle;connectable=0;fillColor=none;top=0;left=0;bottom=0;right=0;align=center;spacingLeft=6;overflow=hidden;whiteSpace=wrap;html=1;labelBackgroundColor=none;sketch=1;curveFitting=1;jiggle=2;rounded=1;" vertex="1" parent="ewHiVL7d5sDHPTaRoK4K-92">
          <mxGeometry x="30" width="90" height="30" as="geometry">
            <mxRectangle width="90" height="30" as="alternateBounds" />
          </mxGeometry>
        </mxCell>
        <mxCell id="ewHiVL7d5sDHPTaRoK4K-104" value="Almaty" style="shape=partialRectangle;connectable=0;fillColor=none;top=0;left=0;bottom=0;right=0;align=center;spacingLeft=6;overflow=hidden;whiteSpace=wrap;html=1;labelBackgroundColor=none;sketch=1;curveFitting=1;jiggle=2;rounded=1;" vertex="1" parent="ewHiVL7d5sDHPTaRoK4K-92">
          <mxGeometry x="120" width="100" height="30" as="geometry">
            <mxRectangle width="100" height="30" as="alternateBounds" />
          </mxGeometry>
        </mxCell>
        <mxCell id="ewHiVL7d5sDHPTaRoK4K-95" style="shape=tableRow;horizontal=0;startSize=0;swimlaneHead=0;swimlaneBody=0;fillColor=none;collapsible=0;dropTarget=0;points=[[0,0.5],[1,0.5]];portConstraint=eastwest;top=0;left=0;right=0;bottom=0;labelBackgroundColor=none;sketch=1;curveFitting=1;jiggle=2;rounded=1;" vertex="1" parent="ewHiVL7d5sDHPTaRoK4K-82">
          <mxGeometry y="124" width="220" height="36" as="geometry" />
        </mxCell>
        <mxCell id="ewHiVL7d5sDHPTaRoK4K-96" value="3" style="shape=partialRectangle;connectable=0;fillColor=none;top=0;left=0;bottom=0;right=0;align=center;spacingLeft=6;overflow=hidden;whiteSpace=wrap;html=1;labelBackgroundColor=none;sketch=1;curveFitting=1;jiggle=2;rounded=1;" vertex="1" parent="ewHiVL7d5sDHPTaRoK4K-95">
          <mxGeometry width="30" height="36" as="geometry">
            <mxRectangle width="30" height="36" as="alternateBounds" />
          </mxGeometry>
        </mxCell>
        <mxCell id="ewHiVL7d5sDHPTaRoK4K-97" value="3" style="shape=partialRectangle;connectable=0;fillColor=none;top=0;left=0;bottom=0;right=0;align=center;spacingLeft=6;overflow=hidden;whiteSpace=wrap;html=1;labelBackgroundColor=none;sketch=1;curveFitting=1;jiggle=2;rounded=1;" vertex="1" parent="ewHiVL7d5sDHPTaRoK4K-95">
          <mxGeometry x="30" width="90" height="36" as="geometry">
            <mxRectangle width="90" height="36" as="alternateBounds" />
          </mxGeometry>
        </mxCell>
        <mxCell id="ewHiVL7d5sDHPTaRoK4K-105" value="Astana" style="shape=partialRectangle;connectable=0;fillColor=none;top=0;left=0;bottom=0;right=0;align=center;spacingLeft=6;overflow=hidden;whiteSpace=wrap;html=1;labelBackgroundColor=none;sketch=1;curveFitting=1;jiggle=2;rounded=1;" vertex="1" parent="ewHiVL7d5sDHPTaRoK4K-95">
          <mxGeometry x="120" width="100" height="36" as="geometry">
            <mxRectangle width="100" height="36" as="alternateBounds" />
          </mxGeometry>
        </mxCell>
        <mxCell id="ewHiVL7d5sDHPTaRoK4K-98" style="shape=tableRow;horizontal=0;startSize=0;swimlaneHead=0;swimlaneBody=0;fillColor=none;collapsible=0;dropTarget=0;points=[[0,0.5],[1,0.5]];portConstraint=eastwest;top=0;left=0;right=0;bottom=0;labelBackgroundColor=none;sketch=1;curveFitting=1;jiggle=2;rounded=1;" vertex="1" parent="ewHiVL7d5sDHPTaRoK4K-82">
          <mxGeometry y="160" width="220" height="25" as="geometry" />
        </mxCell>
        <mxCell id="ewHiVL7d5sDHPTaRoK4K-99" value="4" style="shape=partialRectangle;connectable=0;fillColor=none;top=0;left=0;bottom=0;right=0;align=center;spacingLeft=6;overflow=hidden;whiteSpace=wrap;html=1;labelBackgroundColor=none;sketch=1;curveFitting=1;jiggle=2;rounded=1;" vertex="1" parent="ewHiVL7d5sDHPTaRoK4K-98">
          <mxGeometry width="30" height="25" as="geometry">
            <mxRectangle width="30" height="25" as="alternateBounds" />
          </mxGeometry>
        </mxCell>
        <mxCell id="ewHiVL7d5sDHPTaRoK4K-100" value="4" style="shape=partialRectangle;connectable=0;fillColor=none;top=0;left=0;bottom=0;right=0;align=center;spacingLeft=6;overflow=hidden;whiteSpace=wrap;html=1;labelBackgroundColor=none;sketch=1;curveFitting=1;jiggle=2;rounded=1;" vertex="1" parent="ewHiVL7d5sDHPTaRoK4K-98">
          <mxGeometry x="30" width="90" height="25" as="geometry">
            <mxRectangle width="90" height="25" as="alternateBounds" />
          </mxGeometry>
        </mxCell>
        <mxCell id="ewHiVL7d5sDHPTaRoK4K-106" value="Istanbul" style="shape=partialRectangle;connectable=0;fillColor=none;top=0;left=0;bottom=0;right=0;align=center;spacingLeft=6;overflow=hidden;whiteSpace=wrap;html=1;labelBackgroundColor=none;sketch=1;curveFitting=1;jiggle=2;rounded=1;" vertex="1" parent="ewHiVL7d5sDHPTaRoK4K-98">
          <mxGeometry x="120" width="100" height="25" as="geometry">
            <mxRectangle width="100" height="25" as="alternateBounds" />
          </mxGeometry>
        </mxCell>
        <mxCell id="ewHiVL7d5sDHPTaRoK4K-109" style="edgeStyle=orthogonalEdgeStyle;rounded=1;orthogonalLoop=1;jettySize=auto;html=1;labelBackgroundColor=none;fontColor=default;sketch=1;curveFitting=1;jiggle=2;entryX=0.355;entryY=1.005;entryDx=0;entryDy=0;entryPerimeter=0;exitX=0.429;exitY=-0.01;exitDx=0;exitDy=0;exitPerimeter=0;" edge="1" parent="1" source="ewHiVL7d5sDHPTaRoK4K-51" target="ewHiVL7d5sDHPTaRoK4K-98">
          <mxGeometry relative="1" as="geometry">
            <mxPoint x="227.99587301587303" y="401.2" as="sourcePoint" />
            <mxPoint x="258" y="313" as="targetPoint" />
          </mxGeometry>
        </mxCell>
        <mxCell id="ewHiVL7d5sDHPTaRoK4K-154" value="Settlements" style="shape=table;startSize=30;container=1;collapsible=1;childLayout=tableLayout;fixedRows=1;rowLines=0;fontStyle=1;align=center;resizeLast=1;labelBackgroundColor=none;sketch=1;curveFitting=1;jiggle=2;rounded=1;labelBorderColor=none;html=1;fontColor=default;" vertex="1" parent="1">
          <mxGeometry x="478" y="90" width="520" height="230" as="geometry" />
        </mxCell>
        <mxCell id="ewHiVL7d5sDHPTaRoK4K-155" value="" style="shape=tableRow;horizontal=0;startSize=0;swimlaneHead=0;swimlaneBody=0;fillColor=none;collapsible=0;dropTarget=0;points=[[0,0.5],[1,0.5]];portConstraint=eastwest;top=0;left=0;right=0;bottom=1;labelBackgroundColor=none;sketch=1;curveFitting=1;jiggle=2;rounded=1;" vertex="1" parent="ewHiVL7d5sDHPTaRoK4K-154">
          <mxGeometry y="30" width="520" height="33" as="geometry" />
        </mxCell>
        <mxCell id="ewHiVL7d5sDHPTaRoK4K-156" value="ID" style="shape=partialRectangle;connectable=0;fillColor=none;top=0;left=0;bottom=0;right=0;align=left;spacingLeft=6;fontStyle=5;overflow=hidden;whiteSpace=wrap;html=1;labelBackgroundColor=none;sketch=1;curveFitting=1;jiggle=2;rounded=1;" vertex="1" parent="ewHiVL7d5sDHPTaRoK4K-155">
          <mxGeometry width="30" height="33" as="geometry">
            <mxRectangle width="30" height="33" as="alternateBounds" />
          </mxGeometry>
        </mxCell>
        <mxCell id="ewHiVL7d5sDHPTaRoK4K-157" value="Region_id" style="shape=partialRectangle;connectable=0;fillColor=none;top=0;left=0;bottom=0;right=0;align=center;spacingLeft=6;fontStyle=5;overflow=hidden;whiteSpace=wrap;html=1;labelBackgroundColor=none;sketch=1;curveFitting=1;jiggle=2;rounded=1;" vertex="1" parent="ewHiVL7d5sDHPTaRoK4K-155">
          <mxGeometry x="30" width="90" height="33" as="geometry">
            <mxRectangle width="90" height="33" as="alternateBounds" />
          </mxGeometry>
        </mxCell>
        <mxCell id="ewHiVL7d5sDHPTaRoK4K-158" value="Region_name" style="shape=partialRectangle;connectable=0;fillColor=none;top=0;left=0;bottom=0;right=0;align=center;spacingLeft=6;fontStyle=5;overflow=hidden;whiteSpace=wrap;html=1;labelBackgroundColor=none;sketch=1;curveFitting=1;jiggle=2;rounded=1;flipV=1;flipH=1;" vertex="1" parent="ewHiVL7d5sDHPTaRoK4K-155">
          <mxGeometry x="120" width="100" height="33" as="geometry">
            <mxRectangle width="100" height="33" as="alternateBounds" />
          </mxGeometry>
        </mxCell>
        <mxCell id="ewHiVL7d5sDHPTaRoK4K-181" value="Population" style="shape=partialRectangle;connectable=0;fillColor=none;top=0;left=0;bottom=0;right=0;align=center;spacingLeft=6;fontStyle=5;overflow=hidden;whiteSpace=wrap;html=1;labelBackgroundColor=none;sketch=1;curveFitting=1;jiggle=2;rounded=1;flipV=1;flipH=1;" vertex="1" parent="ewHiVL7d5sDHPTaRoK4K-155">
          <mxGeometry x="220" width="100" height="33" as="geometry">
            <mxRectangle width="100" height="33" as="alternateBounds" />
          </mxGeometry>
        </mxCell>
        <mxCell id="ewHiVL7d5sDHPTaRoK4K-187" value="Coordinates" style="shape=partialRectangle;connectable=0;fillColor=none;top=0;left=0;bottom=0;right=0;align=center;spacingLeft=6;fontStyle=5;overflow=hidden;whiteSpace=wrap;html=1;labelBackgroundColor=none;sketch=1;curveFitting=1;jiggle=2;rounded=1;flipV=1;flipH=1;" vertex="1" parent="ewHiVL7d5sDHPTaRoK4K-155">
          <mxGeometry x="320" width="100" height="33" as="geometry">
            <mxRectangle width="100" height="33" as="alternateBounds" />
          </mxGeometry>
        </mxCell>
        <mxCell id="ewHiVL7d5sDHPTaRoK4K-193" value="Description" style="shape=partialRectangle;connectable=0;fillColor=none;top=0;left=0;bottom=0;right=0;align=center;spacingLeft=6;fontStyle=5;overflow=hidden;whiteSpace=wrap;html=1;labelBackgroundColor=none;sketch=1;curveFitting=1;jiggle=2;rounded=1;flipV=1;flipH=1;" vertex="1" parent="ewHiVL7d5sDHPTaRoK4K-155">
          <mxGeometry x="420" width="100" height="33" as="geometry">
            <mxRectangle width="100" height="33" as="alternateBounds" />
          </mxGeometry>
        </mxCell>
        <mxCell id="ewHiVL7d5sDHPTaRoK4K-159" value="" style="shape=tableRow;horizontal=0;startSize=0;swimlaneHead=0;swimlaneBody=0;fillColor=none;collapsible=0;dropTarget=0;points=[[0,0.5],[1,0.5]];portConstraint=eastwest;top=0;left=0;right=0;bottom=0;labelBackgroundColor=none;sketch=1;curveFitting=1;jiggle=2;rounded=1;" vertex="1" parent="ewHiVL7d5sDHPTaRoK4K-154">
          <mxGeometry y="63" width="520" height="32" as="geometry" />
        </mxCell>
        <mxCell id="ewHiVL7d5sDHPTaRoK4K-160" value="1" style="shape=partialRectangle;connectable=0;fillColor=none;top=0;left=0;bottom=0;right=0;align=center;spacingLeft=6;overflow=hidden;whiteSpace=wrap;html=1;labelBackgroundColor=none;sketch=1;curveFitting=1;jiggle=2;rounded=1;" vertex="1" parent="ewHiVL7d5sDHPTaRoK4K-159">
          <mxGeometry width="30" height="32" as="geometry">
            <mxRectangle width="30" height="32" as="alternateBounds" />
          </mxGeometry>
        </mxCell>
        <mxCell id="ewHiVL7d5sDHPTaRoK4K-161" value="1" style="shape=partialRectangle;connectable=0;fillColor=none;top=0;left=0;bottom=0;right=0;align=center;spacingLeft=6;overflow=hidden;whiteSpace=wrap;html=1;labelBackgroundColor=none;sketch=1;curveFitting=1;jiggle=2;rounded=1;" vertex="1" parent="ewHiVL7d5sDHPTaRoK4K-159">
          <mxGeometry x="30" width="90" height="32" as="geometry">
            <mxRectangle width="90" height="32" as="alternateBounds" />
          </mxGeometry>
        </mxCell>
        <mxCell id="ewHiVL7d5sDHPTaRoK4K-162" value="Abu-Dhabi" style="shape=partialRectangle;connectable=0;fillColor=none;top=0;left=0;bottom=0;right=0;align=center;spacingLeft=6;overflow=hidden;whiteSpace=wrap;html=1;labelBackgroundColor=none;sketch=1;curveFitting=1;jiggle=2;rounded=1;" vertex="1" parent="ewHiVL7d5sDHPTaRoK4K-159">
          <mxGeometry x="120" width="100" height="32" as="geometry">
            <mxRectangle width="100" height="32" as="alternateBounds" />
          </mxGeometry>
        </mxCell>
        <mxCell id="ewHiVL7d5sDHPTaRoK4K-182" value="2500000" style="shape=partialRectangle;connectable=0;fillColor=none;top=0;left=0;bottom=0;right=0;align=center;spacingLeft=6;overflow=hidden;whiteSpace=wrap;html=1;labelBackgroundColor=none;sketch=1;curveFitting=1;jiggle=2;rounded=1;" vertex="1" parent="ewHiVL7d5sDHPTaRoK4K-159">
          <mxGeometry x="220" width="100" height="32" as="geometry">
            <mxRectangle width="100" height="32" as="alternateBounds" />
          </mxGeometry>
        </mxCell>
        <mxCell id="ewHiVL7d5sDHPTaRoK4K-188" value="&lt;b style=&quot;font-family: &amp;quot;Google Sans&amp;quot;, Arial, sans-serif;&quot;&gt;&lt;font style=&quot;color: rgb(0, 0, 0); font-size: 10px;&quot;&gt;43°14′24″N 76°54′54″E&lt;/font&gt;&lt;/b&gt;" style="shape=partialRectangle;connectable=0;fillColor=none;top=0;left=0;bottom=0;right=0;align=center;spacingLeft=6;overflow=hidden;whiteSpace=wrap;html=1;labelBackgroundColor=none;sketch=1;curveFitting=1;jiggle=2;rounded=1;" vertex="1" parent="ewHiVL7d5sDHPTaRoK4K-159">
          <mxGeometry x="320" width="100" height="32" as="geometry">
            <mxRectangle width="100" height="32" as="alternateBounds" />
          </mxGeometry>
        </mxCell>
        <mxCell id="ewHiVL7d5sDHPTaRoK4K-194" value="Megapolis" style="shape=partialRectangle;connectable=0;fillColor=none;top=0;left=0;bottom=0;right=0;align=center;spacingLeft=6;overflow=hidden;whiteSpace=wrap;html=1;labelBackgroundColor=none;sketch=1;curveFitting=1;jiggle=2;rounded=1;" vertex="1" parent="ewHiVL7d5sDHPTaRoK4K-159">
          <mxGeometry x="420" width="100" height="32" as="geometry">
            <mxRectangle width="100" height="32" as="alternateBounds" />
          </mxGeometry>
        </mxCell>
        <mxCell id="ewHiVL7d5sDHPTaRoK4K-163" value="" style="shape=tableRow;horizontal=0;startSize=0;swimlaneHead=0;swimlaneBody=0;fillColor=none;collapsible=0;dropTarget=0;points=[[0,0.5],[1,0.5]];portConstraint=eastwest;top=0;left=0;right=0;bottom=0;labelBackgroundColor=none;sketch=1;curveFitting=1;jiggle=2;rounded=1;" vertex="1" parent="ewHiVL7d5sDHPTaRoK4K-154">
          <mxGeometry y="95" width="520" height="31" as="geometry" />
        </mxCell>
        <mxCell id="ewHiVL7d5sDHPTaRoK4K-164" value="2" style="shape=partialRectangle;connectable=0;fillColor=none;top=0;left=0;bottom=0;right=0;align=center;spacingLeft=6;overflow=hidden;whiteSpace=wrap;html=1;labelBackgroundColor=none;sketch=1;curveFitting=1;jiggle=2;rounded=1;" vertex="1" parent="ewHiVL7d5sDHPTaRoK4K-163">
          <mxGeometry width="30" height="31" as="geometry">
            <mxRectangle width="30" height="31" as="alternateBounds" />
          </mxGeometry>
        </mxCell>
        <mxCell id="ewHiVL7d5sDHPTaRoK4K-165" value="2" style="shape=partialRectangle;connectable=0;fillColor=none;top=0;left=0;bottom=0;right=0;align=center;spacingLeft=6;overflow=hidden;whiteSpace=wrap;html=1;labelBackgroundColor=none;sketch=1;curveFitting=1;jiggle=2;rounded=1;" vertex="1" parent="ewHiVL7d5sDHPTaRoK4K-163">
          <mxGeometry x="30" width="90" height="31" as="geometry">
            <mxRectangle width="90" height="31" as="alternateBounds" />
          </mxGeometry>
        </mxCell>
        <mxCell id="ewHiVL7d5sDHPTaRoK4K-166" value="Almaty City" style="shape=partialRectangle;connectable=0;fillColor=none;top=0;left=0;bottom=0;right=0;align=center;spacingLeft=6;overflow=hidden;whiteSpace=wrap;html=1;labelBackgroundColor=none;sketch=1;curveFitting=1;jiggle=2;rounded=1;" vertex="1" parent="ewHiVL7d5sDHPTaRoK4K-163">
          <mxGeometry x="120" width="100" height="31" as="geometry">
            <mxRectangle width="100" height="31" as="alternateBounds" />
          </mxGeometry>
        </mxCell>
        <mxCell id="ewHiVL7d5sDHPTaRoK4K-183" value="2195000" style="shape=partialRectangle;connectable=0;fillColor=none;top=0;left=0;bottom=0;right=0;align=center;spacingLeft=6;overflow=hidden;whiteSpace=wrap;html=1;labelBackgroundColor=none;sketch=1;curveFitting=1;jiggle=2;rounded=1;" vertex="1" parent="ewHiVL7d5sDHPTaRoK4K-163">
          <mxGeometry x="220" width="100" height="31" as="geometry">
            <mxRectangle width="100" height="31" as="alternateBounds" />
          </mxGeometry>
        </mxCell>
        <mxCell id="ewHiVL7d5sDHPTaRoK4K-189" value="&lt;b style=&quot;font-family: &amp;quot;Google Sans&amp;quot;, Arial, sans-serif;&quot;&gt;&lt;font style=&quot;color: rgb(0, 0, 0); font-size: 10px;&quot;&gt;43°14′24″N 76°54′54″E&lt;/font&gt;&lt;/b&gt;" style="shape=partialRectangle;connectable=0;fillColor=none;top=0;left=0;bottom=0;right=0;align=center;spacingLeft=6;overflow=hidden;whiteSpace=wrap;html=1;labelBackgroundColor=none;sketch=1;curveFitting=1;jiggle=2;rounded=1;" vertex="1" parent="ewHiVL7d5sDHPTaRoK4K-163">
          <mxGeometry x="320" width="100" height="31" as="geometry">
            <mxRectangle width="100" height="31" as="alternateBounds" />
          </mxGeometry>
        </mxCell>
        <mxCell id="ewHiVL7d5sDHPTaRoK4K-195" value="Ex-capital of KZ, Megapolis" style="shape=partialRectangle;connectable=0;fillColor=none;top=0;left=0;bottom=0;right=0;align=center;spacingLeft=6;overflow=hidden;whiteSpace=wrap;html=1;labelBackgroundColor=none;sketch=1;curveFitting=1;jiggle=2;rounded=1;" vertex="1" parent="ewHiVL7d5sDHPTaRoK4K-163">
          <mxGeometry x="420" width="100" height="31" as="geometry">
            <mxRectangle width="100" height="31" as="alternateBounds" />
          </mxGeometry>
        </mxCell>
        <mxCell id="ewHiVL7d5sDHPTaRoK4K-167" value="" style="shape=tableRow;horizontal=0;startSize=0;swimlaneHead=0;swimlaneBody=0;fillColor=none;collapsible=0;dropTarget=0;points=[[0,0.5],[1,0.5]];portConstraint=eastwest;top=0;left=0;right=0;bottom=0;labelBackgroundColor=none;sketch=1;curveFitting=1;jiggle=2;rounded=1;" vertex="1" parent="ewHiVL7d5sDHPTaRoK4K-154">
          <mxGeometry y="126" width="520" height="30" as="geometry" />
        </mxCell>
        <mxCell id="ewHiVL7d5sDHPTaRoK4K-168" value="3" style="shape=partialRectangle;connectable=0;fillColor=none;top=0;left=0;bottom=0;right=0;align=center;spacingLeft=6;overflow=hidden;whiteSpace=wrap;html=1;labelBackgroundColor=none;sketch=1;curveFitting=1;jiggle=2;rounded=1;" vertex="1" parent="ewHiVL7d5sDHPTaRoK4K-167">
          <mxGeometry width="30" height="30" as="geometry">
            <mxRectangle width="30" height="30" as="alternateBounds" />
          </mxGeometry>
        </mxCell>
        <mxCell id="ewHiVL7d5sDHPTaRoK4K-169" value="2" style="shape=partialRectangle;connectable=0;fillColor=none;top=0;left=0;bottom=0;right=0;align=center;spacingLeft=6;overflow=hidden;whiteSpace=wrap;html=1;labelBackgroundColor=none;sketch=1;curveFitting=1;jiggle=2;rounded=1;" vertex="1" parent="ewHiVL7d5sDHPTaRoK4K-167">
          <mxGeometry x="30" width="90" height="30" as="geometry">
            <mxRectangle width="90" height="30" as="alternateBounds" />
          </mxGeometry>
        </mxCell>
        <mxCell id="ewHiVL7d5sDHPTaRoK4K-170" value="Esik" style="shape=partialRectangle;connectable=0;fillColor=none;top=0;left=0;bottom=0;right=0;align=center;spacingLeft=6;overflow=hidden;whiteSpace=wrap;html=1;labelBackgroundColor=none;sketch=1;curveFitting=1;jiggle=2;rounded=1;" vertex="1" parent="ewHiVL7d5sDHPTaRoK4K-167">
          <mxGeometry x="120" width="100" height="30" as="geometry">
            <mxRectangle width="100" height="30" as="alternateBounds" />
          </mxGeometry>
        </mxCell>
        <mxCell id="ewHiVL7d5sDHPTaRoK4K-184" value="34000" style="shape=partialRectangle;connectable=0;fillColor=none;top=0;left=0;bottom=0;right=0;align=center;spacingLeft=6;overflow=hidden;whiteSpace=wrap;html=1;labelBackgroundColor=none;sketch=1;curveFitting=1;jiggle=2;rounded=1;" vertex="1" parent="ewHiVL7d5sDHPTaRoK4K-167">
          <mxGeometry x="220" width="100" height="30" as="geometry">
            <mxRectangle width="100" height="30" as="alternateBounds" />
          </mxGeometry>
        </mxCell>
        <mxCell id="ewHiVL7d5sDHPTaRoK4K-190" value="&lt;b style=&quot;font-family: &amp;quot;Google Sans&amp;quot;, Arial, sans-serif;&quot;&gt;&lt;font style=&quot;color: rgb(0, 0, 0); font-size: 10px;&quot;&gt;43°14′24″N 76°54′54″E&lt;/font&gt;&lt;/b&gt;" style="shape=partialRectangle;connectable=0;fillColor=none;top=0;left=0;bottom=0;right=0;align=center;spacingLeft=6;overflow=hidden;whiteSpace=wrap;html=1;labelBackgroundColor=none;sketch=1;curveFitting=1;jiggle=2;rounded=1;" vertex="1" parent="ewHiVL7d5sDHPTaRoK4K-167">
          <mxGeometry x="320" width="100" height="30" as="geometry">
            <mxRectangle width="100" height="30" as="alternateBounds" />
          </mxGeometry>
        </mxCell>
        <mxCell id="ewHiVL7d5sDHPTaRoK4K-196" value="Province" style="shape=partialRectangle;connectable=0;fillColor=none;top=0;left=0;bottom=0;right=0;align=center;spacingLeft=6;overflow=hidden;whiteSpace=wrap;html=1;labelBackgroundColor=none;sketch=1;curveFitting=1;jiggle=2;rounded=1;" vertex="1" parent="ewHiVL7d5sDHPTaRoK4K-167">
          <mxGeometry x="420" width="100" height="30" as="geometry">
            <mxRectangle width="100" height="30" as="alternateBounds" />
          </mxGeometry>
        </mxCell>
        <mxCell id="ewHiVL7d5sDHPTaRoK4K-171" style="shape=tableRow;horizontal=0;startSize=0;swimlaneHead=0;swimlaneBody=0;fillColor=none;collapsible=0;dropTarget=0;points=[[0,0.5],[1,0.5]];portConstraint=eastwest;top=0;left=0;right=0;bottom=0;labelBackgroundColor=none;sketch=1;curveFitting=1;jiggle=2;rounded=1;" vertex="1" parent="ewHiVL7d5sDHPTaRoK4K-154">
          <mxGeometry y="156" width="520" height="36" as="geometry" />
        </mxCell>
        <mxCell id="ewHiVL7d5sDHPTaRoK4K-172" value="4" style="shape=partialRectangle;connectable=0;fillColor=none;top=0;left=0;bottom=0;right=0;align=center;spacingLeft=6;overflow=hidden;whiteSpace=wrap;html=1;labelBackgroundColor=none;sketch=1;curveFitting=1;jiggle=2;rounded=1;" vertex="1" parent="ewHiVL7d5sDHPTaRoK4K-171">
          <mxGeometry width="30" height="36" as="geometry">
            <mxRectangle width="30" height="36" as="alternateBounds" />
          </mxGeometry>
        </mxCell>
        <mxCell id="ewHiVL7d5sDHPTaRoK4K-173" value="3" style="shape=partialRectangle;connectable=0;fillColor=none;top=0;left=0;bottom=0;right=0;align=center;spacingLeft=6;overflow=hidden;whiteSpace=wrap;html=1;labelBackgroundColor=none;sketch=1;curveFitting=1;jiggle=2;rounded=1;" vertex="1" parent="ewHiVL7d5sDHPTaRoK4K-171">
          <mxGeometry x="30" width="90" height="36" as="geometry">
            <mxRectangle width="90" height="36" as="alternateBounds" />
          </mxGeometry>
        </mxCell>
        <mxCell id="ewHiVL7d5sDHPTaRoK4K-174" value="Astana" style="shape=partialRectangle;connectable=0;fillColor=none;top=0;left=0;bottom=0;right=0;align=center;spacingLeft=6;overflow=hidden;whiteSpace=wrap;html=1;labelBackgroundColor=none;sketch=1;curveFitting=1;jiggle=2;rounded=1;" vertex="1" parent="ewHiVL7d5sDHPTaRoK4K-171">
          <mxGeometry x="120" width="100" height="36" as="geometry">
            <mxRectangle width="100" height="36" as="alternateBounds" />
          </mxGeometry>
        </mxCell>
        <mxCell id="ewHiVL7d5sDHPTaRoK4K-185" value="1345000" style="shape=partialRectangle;connectable=0;fillColor=none;top=0;left=0;bottom=0;right=0;align=center;spacingLeft=6;overflow=hidden;whiteSpace=wrap;html=1;labelBackgroundColor=none;sketch=1;curveFitting=1;jiggle=2;rounded=1;" vertex="1" parent="ewHiVL7d5sDHPTaRoK4K-171">
          <mxGeometry x="220" width="100" height="36" as="geometry">
            <mxRectangle width="100" height="36" as="alternateBounds" />
          </mxGeometry>
        </mxCell>
        <mxCell id="ewHiVL7d5sDHPTaRoK4K-191" value="&lt;b style=&quot;font-family: &amp;quot;Google Sans&amp;quot;, Arial, sans-serif;&quot;&gt;&lt;font style=&quot;color: rgb(0, 0, 0); font-size: 10px;&quot;&gt;43°14′24″N 76°54′54″E&lt;/font&gt;&lt;/b&gt;" style="shape=partialRectangle;connectable=0;fillColor=none;top=0;left=0;bottom=0;right=0;align=center;spacingLeft=6;overflow=hidden;whiteSpace=wrap;html=1;labelBackgroundColor=none;sketch=1;curveFitting=1;jiggle=2;rounded=1;" vertex="1" parent="ewHiVL7d5sDHPTaRoK4K-171">
          <mxGeometry x="320" width="100" height="36" as="geometry">
            <mxRectangle width="100" height="36" as="alternateBounds" />
          </mxGeometry>
        </mxCell>
        <mxCell id="ewHiVL7d5sDHPTaRoK4K-197" value="Capital of KZ" style="shape=partialRectangle;connectable=0;fillColor=none;top=0;left=0;bottom=0;right=0;align=center;spacingLeft=6;overflow=hidden;whiteSpace=wrap;html=1;labelBackgroundColor=none;sketch=1;curveFitting=1;jiggle=2;rounded=1;" vertex="1" parent="ewHiVL7d5sDHPTaRoK4K-171">
          <mxGeometry x="420" width="100" height="36" as="geometry">
            <mxRectangle width="100" height="36" as="alternateBounds" />
          </mxGeometry>
        </mxCell>
        <mxCell id="ewHiVL7d5sDHPTaRoK4K-175" style="shape=tableRow;horizontal=0;startSize=0;swimlaneHead=0;swimlaneBody=0;fillColor=none;collapsible=0;dropTarget=0;points=[[0,0.5],[1,0.5]];portConstraint=eastwest;top=0;left=0;right=0;bottom=0;labelBackgroundColor=none;sketch=1;curveFitting=1;jiggle=2;rounded=1;" vertex="1" parent="ewHiVL7d5sDHPTaRoK4K-154">
          <mxGeometry y="192" width="520" height="38" as="geometry" />
        </mxCell>
        <mxCell id="ewHiVL7d5sDHPTaRoK4K-176" value="5" style="shape=partialRectangle;connectable=0;fillColor=none;top=0;left=0;bottom=0;right=0;align=center;spacingLeft=6;overflow=hidden;whiteSpace=wrap;html=1;labelBackgroundColor=none;sketch=1;curveFitting=1;jiggle=2;rounded=1;" vertex="1" parent="ewHiVL7d5sDHPTaRoK4K-175">
          <mxGeometry width="30" height="38" as="geometry">
            <mxRectangle width="30" height="38" as="alternateBounds" />
          </mxGeometry>
        </mxCell>
        <mxCell id="ewHiVL7d5sDHPTaRoK4K-177" value="4" style="shape=partialRectangle;connectable=0;fillColor=none;top=0;left=0;bottom=0;right=0;align=center;spacingLeft=6;overflow=hidden;whiteSpace=wrap;html=1;labelBackgroundColor=none;sketch=1;curveFitting=1;jiggle=2;rounded=1;" vertex="1" parent="ewHiVL7d5sDHPTaRoK4K-175">
          <mxGeometry x="30" width="90" height="38" as="geometry">
            <mxRectangle width="90" height="38" as="alternateBounds" />
          </mxGeometry>
        </mxCell>
        <mxCell id="ewHiVL7d5sDHPTaRoK4K-178" value="Istanbul Province" style="shape=partialRectangle;connectable=0;fillColor=none;top=0;left=0;bottom=0;right=0;align=center;spacingLeft=6;overflow=hidden;whiteSpace=wrap;html=1;labelBackgroundColor=none;sketch=1;curveFitting=1;jiggle=2;rounded=1;" vertex="1" parent="ewHiVL7d5sDHPTaRoK4K-175">
          <mxGeometry x="120" width="100" height="38" as="geometry">
            <mxRectangle width="100" height="38" as="alternateBounds" />
          </mxGeometry>
        </mxCell>
        <mxCell id="ewHiVL7d5sDHPTaRoK4K-186" value="15600000" style="shape=partialRectangle;connectable=0;fillColor=none;top=0;left=0;bottom=0;right=0;align=center;spacingLeft=6;overflow=hidden;whiteSpace=wrap;html=1;labelBackgroundColor=none;sketch=1;curveFitting=1;jiggle=2;rounded=1;" vertex="1" parent="ewHiVL7d5sDHPTaRoK4K-175">
          <mxGeometry x="220" width="100" height="38" as="geometry">
            <mxRectangle width="100" height="38" as="alternateBounds" />
          </mxGeometry>
        </mxCell>
        <mxCell id="ewHiVL7d5sDHPTaRoK4K-192" value="&lt;b style=&quot;font-family: &amp;quot;Google Sans&amp;quot;, Arial, sans-serif;&quot;&gt;&lt;font style=&quot;color: rgb(0, 0, 0); font-size: 10px;&quot;&gt;43°14′24″N 76°54′54″E&lt;/font&gt;&lt;/b&gt;" style="shape=partialRectangle;connectable=0;fillColor=none;top=0;left=0;bottom=0;right=0;align=center;spacingLeft=6;overflow=hidden;whiteSpace=wrap;html=1;labelBackgroundColor=none;sketch=1;curveFitting=1;jiggle=2;rounded=1;" vertex="1" parent="ewHiVL7d5sDHPTaRoK4K-175">
          <mxGeometry x="320" width="100" height="38" as="geometry">
            <mxRectangle width="100" height="38" as="alternateBounds" />
          </mxGeometry>
        </mxCell>
        <mxCell id="ewHiVL7d5sDHPTaRoK4K-198" value="Megapolis" style="shape=partialRectangle;connectable=0;fillColor=none;top=0;left=0;bottom=0;right=0;align=center;spacingLeft=6;overflow=hidden;whiteSpace=wrap;html=1;labelBackgroundColor=none;sketch=1;curveFitting=1;jiggle=2;rounded=1;" vertex="1" parent="ewHiVL7d5sDHPTaRoK4K-175">
          <mxGeometry x="420" width="100" height="38" as="geometry">
            <mxRectangle width="100" height="38" as="alternateBounds" />
          </mxGeometry>
        </mxCell>
        <mxCell id="ewHiVL7d5sDHPTaRoK4K-180" style="edgeStyle=orthogonalEdgeStyle;rounded=0;sketch=1;hachureGap=4;jiggle=2;curveFitting=1;orthogonalLoop=1;jettySize=auto;html=1;entryX=0.359;entryY=0.99;entryDx=0;entryDy=0;entryPerimeter=0;fontFamily=Architects Daughter;fontSource=https%3A%2F%2Ffonts.googleapis.com%2Fcss%3Ffamily%3DArchitects%2BDaughter;" edge="1" parent="1" source="ewHiVL7d5sDHPTaRoK4K-82" target="ewHiVL7d5sDHPTaRoK4K-175">
          <mxGeometry relative="1" as="geometry" />
        </mxCell>
      </root>
    </mxGraphModel>
  </diagram>
</mxfile>
